<?xml version="1.0" encoding="UTF-8" standalone="no"?>
<svg
   xmlns:dc="http://purl.org/dc/elements/1.1/"
   xmlns:cc="http://creativecommons.org/ns#"
   xmlns:rdf="http://www.w3.org/1999/02/22-rdf-syntax-ns#"
   xmlns:svg="http://www.w3.org/2000/svg"
   xmlns="http://www.w3.org/2000/svg"
   viewBox="0 0 626.66669 142.66667"
   height="142.66667"
   width="626.66669"
   xml:space="preserve"
   id="svg2"
   version="1.1"><metadata
     id="metadata8"><rdf:RDF><cc:Work
         rdf:about=""><dc:format>image/svg+xml</dc:format><dc:type
           rdf:resource="http://purl.org/dc/dcmitype/StillImage" /></cc:Work></rdf:RDF></metadata><defs
     id="defs6" /><g
     transform="matrix(1.3333333,0,0,-1.3333333,0,142.66667)"
     id="g10"><g
       transform="scale(0.1)"
       id="g12"><path
         id="path14"
         style="fill:#ed1c24;fill-opacity:1;fill-rule:nonzero;stroke:none"
         d="m 2893.91,835.637 v 118.504 c 0,29.996 -21,52.499 -51,52.499 h -24 c -13.5,0 -22.5,-3 -33,-12.003 -10.5,9.003 -16.5,12.003 -31.5,12.003 h -19.5 c -13.5,0 -24,-12.003 -25.5,-13.503 v 12.003 h -37.5 V 835.637 h 37.5 v 123 c 0,7.5 9,13.504 18,13.504 h 19.5 c 9,0 18,-7.504 18,-16.504 v -120 h 37.5 v 120 c 0,9 7.5,16.504 18,16.504 h 16.5 c 10.5,0 19.5,-7.504 19.5,-18 V 835.637 Z m -262.5,0 v 169.503 h -39 V 883.637 c -3,-7.5 -10.5,-13.5 -19.5,-13.5 h -21 c -10.5,0 -19.5,7.5 -19.5,18 v 117.003 h -37.5 V 888.137 c 0,-30 22.5,-54 54,-54 h 18 c 13.5,0 24,12.004 25.5,13.5 v -12 z m -180,0 v 118.504 c 0,29.996 -22.5,52.499 -54,52.499 h -18 c -13.5,0 -24,-12.003 -25.5,-13.503 v 76.503 h -39 V 835.637 h 39 v 123 c 0,9 10.5,13.504 19.5,13.504 h 21 c 10.5,0 19.5,-7.504 19.5,-18 V 835.637 Z m -172.5,52.5 v 1.5 h -39 c 0,-16.496 -6,-19.5 -18,-19.5 h -22.5 c -10.5,0 -18,9 -18,19.5 v 64.504 c 0,10.496 7.5,18 18,18 h 22.5 c 10.5,0 18,-7.504 18,-18 h 39 c 0,31.496 -24,52.499 -57,52.499 h -24 c -31.5,0 -55.5,-24.003 -55.5,-54.003 v -63 c 0,-30 25.5,-55.5 57,-55.5 h 24 c 34.5,0 55.5,24 55.5,54 z m 336,-268.5 h -25.5 l -42,-132 -42,132 h -27 l 57,-165 -19.5,-61.5 h 25.5 z m -289.5,39 v 28.5 h -28.5 v -28.5 z m 136.5,-64.5 v 25.5 h -48 v 64.5 h -24 v -64.5 h -30 v -25.5 h 30 v -90 c 0,-28.5 13.5,-51 51,-51 h 18 v 22.5 h -18 c -21,0 -27,12 -27,28.5 v 90 z m -354,294 v 64.5 c 0,30 -25.5,54.003 -57,54.003 h -22.5 c -31.5,0 -55.5,-24.003 -55.5,-54.003 v -63 c 0,-30 24,-55.5 55.5,-55.5 h 22.5 c 31.5,0 57,24 57,54 z m 216,-435 v 166.5 h -24 v -166.5 z m 426,-343.5 v 16.5 c 0,24 -16.5,39 -40.5,39 h -48 c -10.5,0 -18,7.5 -18,18 v 12 c 0,10.5 7.5,19.5 18,19.5 h 39 c 12,0 18,-10.5 18,-19.5 h 24 c 0,22.5 -18,42 -40.5,42 h -39 c -22.5,0 -43.5,-18 -43.5,-42 v -12 c 0,-24 16.5,-40.5 40.5,-40.5 h 48 c 10.5,0 18,-6 18,-16.5 v -16.5 c 0,-9 -9,-18.0003 -18,-18.0003 h -51 c -10.5,0 -15,4.5 -16.5,18.0003 h -24 c 0,-24.0003 15,-40.7503 39,-40.7503 h 52.5 c 27,0 42,18.25 42,40.7503 z m -819,784.5 v 21 c 0,15 -6,28.5 -15,39.004 9,10.496 15,23.996 15,38.996 v 18.003 c 0,31.5 -27,58.5 -58.5,58.5 h -97.5 V 835.637 h 97.5 c 31.5,0 58.5,25.5 58.5,58.5 z m 327,-402 v 16.5 c 0,24 -16.5,40.5 -40.5,40.5 h -49.5 c -10.5,0 -16.5,7.5 -16.5,18 v 15 c 0,10.5 6,16.5 16.5,16.5 h 39 c 12,0 19.5,-9 19.5,-18 h 24 c 0,22.5 -19.5,40.5 -42,40.5 h -39 c -22.5,0 -42,-16.5 -42,-40.5 v -13.5 c 0,-24 16.5,-42 40.5,-42 h 48 c 10.5,0 16.5,-6 16.5,-16.5 v -16.5 c 0,-10.5 -6,-16.5 -16.5,-16.5 h -49.5 c -10.5,0 -18,6 -18,16.5 h -25.5 c -1.5,-22.5 16.5,-39 40.5,-39 h 52.5 c 28.5,0 40.5,16.5 42,39 z m 319.5,-349.5 v 43.5 c 0,28.5 -21,51 -52.5,51 h -25.5 c -31.5,0 -52.5,-24 -52.5,-51 v -67.5 c 0,-33.0003 22.5,-49.7503 52.5,-49.7503 h 28.5 c 30,0 46.5,18.25 48,40.7503 h -25.5 c -1.5,-12.0003 -10.5,-18.0003 -22.5,-18.0003 h -25.5 c -15,0 -31.5,6 -31.5,27.0003 v 24 z m -480,453 v 25.5 h -28.5 c -10.5,0 -22.5,-4.5 -33,-16.5 v 15 h -24 v -165 h 24 v 114 c 0,15 13.5,27 28.5,27 z m -445.5,286.504 h -39 c 0,-6.004 -4.5,-12.004 -13.5,-12.004 h -25.5 c -10.5,0 -19.5,7.5 -19.5,18 v 13.5 h 97.5 v 51 c 0,30 -24,54.003 -55.5,54.003 h -22.5 c -31.5,0 -57,-24.003 -57,-54.003 v -63 c 0,-30 25.5,-55.5 57,-55.5 h 25.5 c 28.5,0 52.5,21.004 52.5,48.004 z m 756,-765.004 h -24 c -1.5,-19.5003 -10.5,-25.5003 -28.5,-25.5003 h -25.5 c -16.5,0 -27,13.5003 -27,27.0003 v 66 c 0,19.5 10.5,30 27,30 h 25.5 c 13.5,0 27,-9 28.5,-22.5 0,-1.5 0,-1.5 0,-3 h 24 v 4.5 c 0,25.5 -25.5,43.5 -52.5,43.5 h -25.5 c -30,0 -52.5,-24 -52.5,-51 v -66 c 0,-27.0003 21,-51.2503 51,-51.2503 h 28.5 c 36,0 49.5,21.25 51,48.2503 z m -918,717 v 36 h -12 c -10.5,0 -18,7.5 -18,18 v 181.503 h -39 V 888.137 c 0,-30 25.5,-54 57,-54 z m 159,-175.5 v 28.5 h -28.5 v -28.5 z m 163.5,-39 h -25.5 l -40.5,-136.5 -40.5,136.5 h -27 l 54,-165 h 27 z m -432,216 v 169.503 h -37.5 V 883.637 c 0,-7.5 -9,-13.5 -19.5,-13.5 h -22.5 c -10.5,0 -18,7.5 -18,18 v 117.003 h -39 V 888.137 c 0,-30 24,-54 55.5,-54 h 16.5 c 13.5,0 25.5,12.004 27,13.5 v -12 z m 265.5,-381 v 165 h -24 v -165 z m 243,-178.5 v 28.5 h -28.5 v -28.5 z m -687,559.5 v 118.504 c 0,29.996 -19.5,52.499 -54,52.499 h -16.5 c -15,0 -27,-13.503 -27,-13.503 v 76.503 h -39 V 835.637 h 39 v 129 c 0,0 6,7.504 21,7.504 h 21 c 12,0 18,-7.504 18,-18 V 835.637 Z m 684,-765.0003 V 235.637 h -24 V 70.6367 Z m -487.5,433.5003 v 183 h -24 v -183 c 0,-15 -13.5,-28.5 -28.5,-28.5 h -46.5 c -15,0 -28.5,13.5 -28.5,28.5 v 183 h -25.5 v -183 c 0,-28.5 21,-51 51,-51 h 49.5 c 28.5,0 52.5,18 52.5,51 z m -370.5,384 v 1.5 h -37.504 c 0,-16.496 -6,-19.5 -18,-19.5 h -22.5 c -10.5,0 -19.5,9 -19.5,19.5 v 64.504 c 0,10.496 9,18 19.5,18 h 22.5 c 10.5,0 18,-7.504 18,-18 h 37.504 c 0,31.496 -22.5,52.499 -55.504,52.499 h -24 c -31.5,0 -55.5,-24.003 -55.5,-54.003 v -63 c 0,-30 24,-55.5 55.5,-55.5 h 24 c 31.504,0 55.504,24 55.504,54 z m 625.5,-766.5 v 15 c 0,19.5 -9,37.5 -27,45 l -84,37.5 c -9,4.5 -13.5,13.5 -13.5,24 v 12 c 0,15 13.5,27 28.5,27 h 33 c 13.5,0 28.5,-10.5 31.5,-24 h 24 c -3,27 -27,48 -55.5,48 h -33 c -28.5,0 -54,-22.5 -54,-51 v -12 c 0,-28.5 13.5,-40.5 37.5,-51 l 67.5,-30 c 15,-7.5 19.5,-16.5 19.5,-25.5 v -15 c 0,-18 -12,-28.5003 -28.5,-28.5003 h -42 c -15,0 -27,10.5003 -28.5,25.5003 h -25.5 c 3,-27.0003 24,-49.7503 52.5,-49.7503 h 45 c 31.5,0 52.5,24.25 52.5,52.7503 z m -795.004,759 v 13.5 c 0,27 -18,45 -43.5,45 h -46.5 c -4.5,0 -9,1.5 -9,7.5 v 18 c 0,6 4.5,7.504 9,7.504 h 34.5 c 6,0 10.5,-1.504 10.5,-12.004 h 39 c 0,27 -22.5,46.503 -48,46.503 h -36 c -25.5,0 -46.5,-19.503 -46.5,-45.003 v -13.5 c 0,-25.5 21,-43.5 46.5,-43.5 h 40.5 c 4.5,0 10.5,-3 10.5,-9 v -18 c 0,-4.496 -4.5,-7.5 -10.5,-7.5 h -43.5 c -6,0 -9,3.004 -9,12.004 h -39 c 0,-27 21,-48.004 46.5,-48.004 h 46.5 c 27,0 48,21.004 48,46.5 z m -175.5,-45 v 118.504 c 0,29.996 -21,52.499 -52.5,52.499 h -19.5 c -13.5,0 -24,-12.003 -25.5,-13.503 v 76.503 h -39 V 835.637 h 39 v 123 c 0,9 9,13.504 18,13.504 h 22.5 c 12,0 19.5,-7.504 19.5,-18 V 835.637 Z m 433.504,-381 v 115.5 c 0,28.5 -22.5,51 -51,51 h -19.5 c -18,0 -27,-6 -40.5,-19.5 -12.004,13.5 -28.504,19.5 -37.504,19.5 h -21 c -16.5,0 -24,-4.5 -33,-13.5 v 12 h -24 v -165 h 24 v 118.5 c 0,16.5 13.5,25.5 28.5,25.5 h 25.5 c 13.5,0 25.5,-13.5 25.5,-28.5 v -115.5 h 24.004 v 117 c 0,15 12,27 28.5,27 h 21 c 15,0 25.5,-13.5 25.5,-28.5 v -115.5 z m 264,-384.0003 V 304.637 h -24 v -79.5 c -7.5,7.5 -15,12 -28.5,12 h -24 c -31.5,0 -52.5,-22.5 -52.5,-51 v -66 c 0,-28.5003 22.5,-51.2503 51,-51.2503 h 21 c 12,0 24,3.25 33,15.25 v -13.5 z M 510.406,888.137 v 1.5 h -39 c 0,-16.496 -6,-19.5 -18,-19.5 h -22.5 c -10.5,0 -18,9 -18,19.5 v 64.504 c 0,10.496 7.5,18 18,18 h 22.5 c 12,0 18,-7.504 18,-18 h 39 c 0,31.496 -24,52.499 -57,52.499 h -25.5 c -31.5,0 -54,-24.003 -54,-54.003 v -63 c 0,-30 24,-55.5 55.5,-55.5 h 24 c 31.5,0 57,24 57,54 z m 336,-433.5 v 165 h -25.5 v -120 c 0,-16.5 -10.5,-24 -27,-24 h -30 c -18,0 -27,12 -27,27 v 117 h -24 v -115.5 c 0,-31.5 19.5,-51 51,-51 h 22.5 c 16.5,0 25.5,3 34.5,12 v -10.5 z m 189.004,-178.5 v 28.5 h -28.5 v -28.5 z m 174,-136.5 v 46.5 c 0,28.5 -22.5,51 -52.5,51 h -27 c -31.5,0 -52.5,-22.5 -52.5,-51 v -67.5 c 0,-27.0003 22.5,-49.7503 52.5,-49.7503 h 30 c 25.5,0 46.5,13.75 46.5,40.7503 h -25.5 c -3,-12.0003 -10.5,-18.0003 -22.5,-18.0003 h -25.5 c -18,0 -30,7.5 -30,25.5003 v 22.5 z m -873.004,748.5 v 64.5 c 0,30 -24,54.003 -55.5,54.003 h -22.5 c -31.5,0 -57,-24.003 -57,-54.003 v -63 c 0,-30 25.5,-55.5 57,-55.5 h 22.5 c 31.5,0 55.5,24 55.5,54 z M 1033.91,70.6367 V 235.637 h -24 V 70.6367 Z M 669.406,454.637 v 115.5 c 0,28.5 -22.5,51 -51,51 h -24 c -16.5,0 -24,-4.5 -33,-13.5 v 79.5 h -25.5 v -232.5 h 25.5 v 118.5 c 0,16.5 12,25.5 27,25.5 h 28.5 c 15,0 28.5,-12 28.5,-27 v -117 z m 310.5,-385.7503 v 24.25 h -9 c -7.5,0 -15,1.5 -19.5,6 -6,4.5003 -9,12.0003 -9,21.0003 v 184.5 h -25.5 v -184.5 c 0,-36.0003 21,-51.2503 54,-51.2503 z m -819,766.7503 v 234.003 h -40.5 V 973.637 H 45.4063 v 96.003 H 4.90625 V 835.637 H 45.4063 v 99 h 74.9997 v -99 z m 712.5,-715.5 v 66 c 0,28.5 -21,51 -52.5,51 h -21 c -12,0 -19.5,-3 -31.5,-15 v 13.5 h -25.5 V 4.38672 h 25.5 V 81.1367 c 7.5,-7.5 15,-12.25 28.5,-12.25 h 24 c 28.5,0 52.5,16.75 52.5,51.2503 z m -174,0 v 66 c 0,28.5 -21,51 -52.5,51 h -19.5 c -12,0 -21,-3 -33,-15 v 13.5 h -24 V 4.38672 h 24 V 81.1367 c 7.5,-7.5 16.5,-12.25 30,-12.25 h 22.5 c 30,0 52.5,21.25 52.5,51.2503 z m -543,385.5 v 24 c 0,15 -7.5,31.5 -19.5,40.5 12,9 19.5,25.5 19.5,40.5 v 24 c 0,28.5 -19.5,52.5 -52.5,52.5 H 4.90625 v -232.5 H 103.906 c 33,0 52.5,22.5 52.5,51 z m 385.5,-435.0003 -69,234.0003 h -39 l -72,-234.0003 h 27 l 13.5,45.0003 h 100.5 l 13.5,-45.0003 z m -273,141.0003 v 24 h -48 v 16.5 c 0,15 13.5,28.5 28.5,28.5 h 18 v 24 h -18 c -28.5,0 -52.5,-22.5 -52.5,-51 v -18 h -30 v -24 h 30 V 70.6367 h 24 V 211.637 Z m -133.5,-90 v 66 c 0,31.5 -25.5,49.5 -52.4997,49.5 h -25.5 c -27,0 -52.50005,-18 -52.50005,-43.5 v -73.5 c 0,-30.0003 22.50005,-51.2503 52.50005,-51.2503 h 25.5 c 28.4997,0 52.4997,24.25 52.4997,52.7503 z m 1935.004,766.5 c 0,-10.5 -9,-18 -19.5,-18 h -21 c -10.5,0 -19.5,7.5 -19.5,18 v 66.004 c 0,10.496 9,18 19.5,18 h 21 c 10.5,0 19.5,-7.504 19.5,-18 z m -180,103.5 c 0,-10.496 -7.5,-18 -18,-18 h -57 v 58.503 h 57 c 10.5,0 18,-9 18,-19.5 z m 0,-97.5 c 0,-10.5 -7.5,-19.5 -18,-19.5 h -57 v 61.504 h 57 c 10.5,0 18,-10.504 18,-21.004 z m 663,-730.5 h -82.5 v 22.5 c 0,15 12,28.5 28.5,28.5 h 25.5 c 16.5,0 28.5,-13.5 28.5,-28.5 z m -939,772.504 h -60 v 18 c 0,10.496 9,18 19.5,18 h 21 c 10.5,0 19.5,-7.504 19.5,-18 z m -258,-823.504 c 0,-15.0003 -15,-21.0003 -27,-21.0003 h -25.5 c -15,0 -28.5,9.0003 -28.5,25.5003 v 72 c 0,16.5 13.5,25.5 28.5,25.5 h 25.5 c 15,0 27,-10.5 27,-25.5 z m -171,51 h -82.5 v 24 c 0,15 12,27 28.5,27 h 25.5 c 16.5,0 28.5,-12 28.5,-27 z m -886.504,724.5 c 0,-10.5 -7.5,-18 -18,-18 h -22.5 c -12,0 -19.5,7.5 -19.5,18 v 66.004 c 0,10.496 9,18 19.5,18 h 22.5 c 10.5,0 18,-7.504 18,-18 z m 550.5,-771 c 0,-16.5 -12,-25.5003 -28.5,-25.5003 h -25.5 c -16.5,0 -27,9.0003 -27,25.5003 v 76.5 c 0,13.5 15,21 27,21 h 25.5 c 15,0 28.5,-9 28.5,-25.5 z m -174,0 c 0,-16.5 -12,-25.5003 -28.5,-25.5003 h -25.5 c -16.5,0 -27,9.0003 -27,25.5003 v 76.5 c 0,7.5 10.5,21 27,21 h 25.5 c 15,0 28.5,-9 28.5,-25.5 z m -543,493.5 c 0,-15 -12,-28.5 -27,-28.5 H 28.9063 v 82.5 h 76.4997 c 15,0 27,-13.5 27,-28.5 z m 363,-471 h -87 l 42,141 h 4.5 z m -363,366 c 0,-16.5 -12,-27 -27,-27 H 28.9063 v 81 h 76.4997 c 15,0 27,-13.5 27,-28.5 z m -21,-387 c 0,-16.5 -11.9997,-27.0003 -28.4997,-27.0003 h -25.5 c -15,0 -28.5,10.5003 -28.5,27.0003 v 70.5 c 0,18 15,25.5 28.5,25.5 h 25.5 c 16.5,0 28.4997,-10.5 28.4997,-25.5 z m 1950.004,24 v 43.5 c 0,28.5 -21,51 -52.5,51 h -25.5 c -31.5,0 -52.5,-24 -52.5,-51 v -67.5 c 0,-33.0003 22.5,-49.7503 52.5,-49.7503 h 28.5 c 30,0 46.5,18.25 48,40.7503 h -25.5 c -1.5,-12.0003 -10.5,-18.0003 -22.5,-18.0003 h -25.5 c -15,0 -31.5,6 -31.5,27.0003 v 24 z m -24,21 h -82.5 v 22.5 c 0,15 12,28.5 28.5,28.5 h 25.5 c 16.5,0 28.5,-13.5 28.5,-28.5 z m -222,-46.5 h -24 c -1.5,-19.5003 -10.5,-25.5003 -28.5,-25.5003 h -25.5 c -16.5,0 -27,13.5003 -27,27.0003 v 66 c 0,19.5 10.5,30 27,30 h 25.5 c 13.5,0 27,-9 28.5,-22.5 0,-1.5 0,-1.5 0,-3 h 24 v 3 c 0,25.5 -25.5,45 -52.5,45 h -25.5 c -30,0 -52.5,-24 -52.5,-51 v -66 c 0,-27.0003 21,-51.2503 51,-51.2503 h 28.5 c 36,0 49.5,21.25 51,48.2503 z m -1489.504,388.5 v 66 c 0,31.5 -25.5,49.5 -52.5,49.5 h -25.5 c -27,0 -52.5,-18 -52.5,-43.5 v -73.5 c 0,-30 22.5,-51 52.5,-51 h 25.5 c 28.5,0 52.5,24 52.5,52.5 z m -24,-3 c 0,-16.5 -12,-27 -28.5,-27 h -25.5 c -15,0 -28.5,10.5 -28.5,27 v 70.5 c 0,18 15,25.5 28.5,25.5 h 25.5 c 16.5,0 28.5,-10.5 28.5,-25.5 z m 193.5,-1.5 h -24 c -1.5,-19.5 -10.5,-25.5 -28.5,-25.5 h -25.5 c -16.5,0 -27,13.5 -27,27 v 66 c 0,19.5 10.5,30 27,30 h 25.5 c 13.5,0 27,-9 28.5,-22.5 0,-1.5 0,-1.5 0,-3 h 24 v 3 c 0,25.5 -25.5,45 -52.5,45 h -25.5 c -30,0 -52.5,-24 -52.5,-51 v -66 c 0,-27 21,-51 51,-51 h 28.5 c 36,0 49.5,21 51,48 z m 1474.504,25.5 v 43.5 c 0,28.5 -21,51 -52.5,51 h -25.5 c -31.5,0 -52.5,-24 -52.5,-51 v -67.5 c 0,-33 22.5,-49.5 52.5,-49.5 h 28.5 c 30,0 46.5,18 48,40.5 h -25.5 c -1.5,-12 -10.5,-18 -22.5,-18 h -25.5 c -15,0 -31.5,6 -31.5,27 v 24 z m -24,21 h -82.5 v 22.5 c 0,15 12,28.5 28.5,28.5 h 25.5 c 16.5,0 28.5,-13.5 28.5,-28.5 z m -372,-93 v 117 c 0,34.5 -25.5,49.5 -51,49.5 h -22.5 c -16.5,0 -25.5,-6 -34.5,-15 v 13.5 h -24 v -165 h 24 v 117 c 0,18 15,27 28.5,27 h 28.5 c 16.5,0 27,-10.5 27,-28.5 v -115.5 z m 663,-384.0003 V 187.637 c 0,34.5 -25.5,49.5 -51,49.5 h -22.5 c -16.5,0 -25.5,-6 -34.5,-15 v 13.5 h -24 V 70.6367 h 24 V 187.637 c 0,18 15,27 28.5,27 h 28.5 c 16.5,0 27,-10.5 27,-28.5 V 70.6367 h 24" /><path
         id="path16"
         style="fill:#ed1c24;fill-opacity:1;fill-rule:nonzero;stroke:none"
         d="m 4690.91,769.637 v 124.5 c 0,96.004 -79.5,175.503 -175.5,175.503 h -124.5 V 943.637 h 112.5 c 34.5,0 61.5,-27 61.5,-61.496 V 769.637 Z m 0,-349.5 v 300.004 h -126 V 420.137 Z m -351,523.5 v 126.003 h -123 c -96,0 -175.5,-79.499 -175.5,-175.503 v -124.5 h 123 v 112.504 c 0,34.496 30,61.496 64.5,61.496 z m 351,-697.5 v 124.5 h -126 v -112.5 c 0,-27 -15,-49.5 -39,-58.5 -7.5,-3 -15,-3 -22.5,-3 h -112.5 v -91.5 -34.5003 h 124.5 c 39,0 76.5,12 105,34.5003 31.5,22.5 54,57 64.5,94.5 4.5,15 6,30 6,46.5 z m -750,523.5 v 124.5 c 0,96.004 -79.5,175.503 -175.5,175.503 h -124.5 V 943.637 h 112.5 c 34.5,0 63,-27 63,-61.496 V 769.637 Z m 225,-49.496 h -124.5 V 420.137 h 123 c 0,73.5 1.5,18 1.5,300.004 z m 174,-649.5043 V 196.637 h -111 c -7.5,0 -15,0 -22.5,3 -24,9 -42,31.5 -42,58.5 v 112.5 h -123 v -124.5 c 0,-16.5 1.5,-31.5 6,-46.5 10.5,-37.5 33,-72 64.5,-94.5 28.5,-22.5003 66,-34.5003 105,-34.5003 z m -748.5,873.0003 v 126.003 h -300 V 769.637 h 126 v 174 z m 349.5,-523.5 v 37.5 c 0,9 0,16.5 -1.5,24 -6,40.5 -27,76.5 -57,102 36,30 58.5,73.5 58.5,123 v 13.504 h -124.5 v -13.504 c 0,-34.5 -28.5,-61.5 -63,-61.5 h -112.5 v -126 h 112.5 c 25.5,0 48,-15 57,-37.5 3,-7.5 6,-15 6,-24 v -37.5 z m -349.5,99 v 126 h -174 v 75.004 h -126 V 420.137 h 126 v 61.5 37.5 z m 349.5,-273 v 124.5 h -124.5 v -124.5 c 0,-21 -13.5,-39 -31.5,-46.5 -6,-3 -12,-3 -19.5,-3 h -124.5 v -91.5 -34.5003 h 124.5 c 39,0 76.5,12 105,34.5003 31.5,22.5 54,57 64.5,94.5 4.5,15 6,30 6,46.5 z M 3591.41,70.6367 V 196.637 h -174 v 174 h -126 V 70.6367 h 300" /></g></g></svg>