<?xml version="1.0" encoding="UTF-8"?>
<svg width="700px" height="156px" viewBox="0 0 700 156" version="1.1" xmlns="http://www.w3.org/2000/svg" xmlns:xlink="http://www.w3.org/1999/xlink">
    <title>hs-gesundheit-logo</title>
    <g id="Page-1" stroke="none" stroke-width="1" fill="none" fill-rule="evenodd">
        <g id="hs-gesundheit-logo">
            <polygon id="Path" fill="#6795AC" fill-rule="nonzero" points="197.69 22.27 207.18 22.27 207.18 44.41 231.09 44.41 231.09 22.27 240.59 22.27 240.59 74.51 231.09 74.51 231.09 52.58 207.18 52.58 207.18 74.51 197.69 74.51"></polygon>
            <path d="M255,61.12 C255,61.12 260.67,66.64 268,66.64 C272,66.64 275.58,64.58 275.58,60.31 C275.62,51 251,52.58 251,36.54 C251,27.86 258.51,21.38 268.52,21.38 C278.82,21.38 284.12,26.97 284.12,26.97 L280,34.7 C280,34.7 275,30.14 268.44,30.14 C264.03,30.14 260.57,32.71 260.57,36.39 C260.57,45.67 285.15,43.39 285.15,60.09 C285.15,68.4 278.82,75.4 267.93,75.4 C261.220154,75.503409 254.744514,72.9347387 249.93,68.26 L255,61.12 Z" id="Path" fill="#6795AC" fill-rule="nonzero"></path>
            <path d="M335.88,21.38 C348.69,21.38 355.31,28 355.31,28 L350.6,35.07 C346.658331,31.8850984 341.757297,30.1234038 336.69,30.07 C324.99,30.07 318.74,38.16 318.74,48.07 C318.74,59.4 326.46,66.76 336.25,66.76 C341.140865,66.6371295 345.810821,64.6978502 349.35,61.32 L349.35,55.16 L341.35,55.16 L341.35,47 L357.9,47 L357.9,74.51 L349.81,74.51 L349.81,72 C349.81,70.9 349.88,69.79 349.88,69.79 L349.74,69.79 C345.572307,73.4993649 340.158271,75.4992725 334.58,75.39 C320.8,75.4 309,64.72 309,48.32 C309,33.16 320.36,21.38 335.88,21.38 Z" id="Path" fill="#6795AC" fill-rule="nonzero"></path>
            <path d="M383.35,36.1 C394.16,36.1 400,44 400,53.91 C400,55.01 399.78,57.51 399.78,57.51 L373.85,57.51 C374.44,64.06 379.52,67.45 385.11,67.45 C391.11,67.45 395.93,63.33 395.93,63.33 L399.54,70 C395.297966,73.5099335 389.95575,75.4145805 384.45,75.38 C372.02,75.38 364.29,66.38 364.29,55.73 C364.29,44.19 372.16,36.1 383.35,36.1 Z M390.56,51.1 C390.41,46.02 387.25,43.3 383.13,43.3 C378.34,43.3 375.03,46.24 374.13,51.1 L390.56,51.1 Z" id="Shape" fill="#6795AC" fill-rule="nonzero"></path>
            <path d="M408.81,63.33 C411.599278,65.8862941 415.21786,67.3493521 419,67.45 C421.65,67.45 423.93,66.27 423.93,64.06 C423.93,58.47 405.68,59.21 405.68,47.14 C405.68,40.14 411.93,36.14 420.03,36.14 C428.49,36.14 432.61,40.41 432.61,40.41 L429.15,47.32 C426.55728,45.1972769 423.300649,44.0539164 419.95,44.09 C417.53,44.09 415.17,45.09 415.17,47.47 C415.17,52.77 433.42,52.11 433.42,64.18 C433.42,70.43 427.97,75.44 419.07,75.44 C413.685183,75.5363923 408.469153,73.5602438 404.5,69.92 L408.81,63.33 Z" id="Path" fill="#6795AC" fill-rule="nonzero"></path>
            <path d="M440.45,37 L449.8,37 L449.8,59.21 C449.8,63.77 450.97,66.86 455.61,66.86 C462.38,66.86 466.13,60.86 466.13,54.2 L466.13,37 L475.48,37 L475.48,74.51 L466.48,74.51 L466.48,70.24 C466.479886,69.3545419 466.529966,68.4697893 466.63,67.59 L466.48,67.59 C463.970759,72.4408371 458.941044,75.462535 453.48,75.4 C445.48,75.4 440.48,71.35 440.48,61.12 L440.45,37 Z" id="Path" fill="#6795AC" fill-rule="nonzero"></path>
            <path d="M484.31,37 L493.31,37 L493.31,41.34 C493.308585,42.2021373 493.258505,43.0635074 493.16,43.92 L493.31,43.92 C495.894888,38.9884669 501.064348,35.9613057 506.63,36.12 C514.94,36.12 519.63,40.46 519.63,50.4 L519.63,74.51 L510.36,74.51 L510.36,52.29 C510.36,47.73 509.18,44.64 504.36,44.64 C499.652066,44.6033534 495.51141,47.7458151 494.28,52.29 C493.791476,53.9100988 493.56859,55.59863 493.62,57.29 L493.62,74.51 L484.27,74.51 L484.31,37 Z" id="Path" fill="#6795AC" fill-rule="nonzero"></path>
            <path d="M543.84,36.1 C552.08,36.1 554.66,40.88 554.66,40.88 L554.81,40.88 C554.81,40.88 554.73,39.88 554.73,38.75 L554.73,22.27 L564.08,22.27 L564.08,74.51 L555.25,74.51 L555.25,71.42 C555.247568,70.610937 555.297673,69.8025697 555.4,69 L555.25,69 C555.25,69 552.08,75.41 543.47,75.41 C533.32,75.41 526.84,67.41 526.84,55.76 C526.84,43.83 533.91,36.1 543.84,36.1 Z M545.61,67.52 C550.46,67.52 555.03,63.99 555.03,55.67 C555.03,49.86 551.94,44.12 545.68,44.12 C540.53,44.12 536.26,48.32 536.26,55.75 C536.26,62.89 540.09,67.52 545.61,67.52 L545.61,67.52 Z" id="Shape" fill="#6795AC" fill-rule="nonzero"></path>
            <path d="M574.38,22.27 L583.73,22.27 L583.73,40.37 C583.733814,41.4251998 583.683749,42.4799061 583.58,43.53 L583.73,43.53 C586.335375,38.8440259 591.319688,35.9843 596.68,36.1 C604.99,36.1 609.68,40.44 609.68,50.38 L609.68,74.51 L600.41,74.51 L600.41,52.29 C600.41,47.73 599.23,44.64 594.41,44.64 C589.653266,44.649017 585.493221,47.8458989 584.26,52.44 C583.825052,54.0186891 583.62623,55.6530751 583.67,57.29 L583.67,74.51 L574.32,74.51 L574.38,22.27 Z" id="Path" fill="#6795AC" fill-rule="nonzero"></path>
            <path d="M635.9,36.1 C646.72,36.1 652.53,43.97 652.53,53.91 C652.53,55.01 652.31,57.51 652.31,57.51 L626.41,57.51 C627,64.06 632.07,67.45 637.67,67.45 C643.67,67.45 648.48,63.33 648.48,63.33 L652.09,70 C647.850738,73.5171353 642.508243,75.4289627 637,75.4003243 C624.57,75.4003243 616.84,66.4 616.84,55.75 C616.84,44.19 624.71,36.1 635.9,36.1 Z M643.11,51.1 C642.96,46.02 639.8,43.3 635.68,43.3 C630.9,43.3 627.58,46.24 626.68,51.1 L643.11,51.1 Z" id="Shape" fill="#6795AC" fill-rule="nonzero"></path>
            <path d="M660.26,22.27 L669.53,22.27 L669.53,30.58 L660.26,30.58 L660.26,22.27 Z M660.26,36.98 L669.6,36.98 L669.6,74.51 L660.26,74.51 L660.26,36.98 Z" id="Shape" fill="#6795AC" fill-rule="nonzero"></path>
            <path d="M681.52,45 L676.67,45 L676.67,37.57 L681.74,37.57 L681.74,26.75 L690.87,26.75 L690.87,37.57 L699.41,37.57 L699.41,45 L690.87,45 L690.87,59.57 C690.87,65.76 695.73,66.64 698.3,66.64 C698.866952,66.6471654 699.433173,66.5969091 699.99,66.49 L699.99,74.66 C699.041795,74.8186636 698.08131,74.8922896 697.12,74.88 C691.9,74.88 681.52,73.33 681.52,60.75 L681.52,45 Z" id="Path" fill="#6795AC" fill-rule="nonzero"></path>
            <path d="M197.69,95.94 L216.46,95.94 C223.24,95.94 228.07,99.44 228.07,105.64 C228.172914,108.967038 226.414793,112.074593 223.51,113.7 L223.51,113.81 C227.64,115.03 229.61,118.81 229.61,122.66 C229.61,130.19 223.56,133.59 216.61,133.59 L197.69,133.59 L197.69,95.94 Z M216.46,111.32 C217.741389,111.37232 218.983995,110.874204 219.874442,109.951273 C220.764889,109.028343 221.21818,107.768693 221.12,106.49 C221.12,103.79 219.53,101.82 216.35,101.82 L204.52,101.82 L204.52,111.32 L216.46,111.32 Z M217.15,127.7 C219.147351,127.785695 221.03077,126.76894 222.055007,125.052055 C223.079244,123.33517 223.079244,121.19483 222.055007,119.477945 C221.03077,117.76106 219.147351,116.744305 217.15,116.83 L204.52,116.83 L204.52,127.7 L217.15,127.7 Z" id="Shape" fill="#84BEDB" fill-rule="nonzero"></path>
            <path d="M256.34,95.3 C261.491507,95.1776552 266.471773,97.1529476 270.138958,100.772996 C273.806142,104.393045 275.845694,109.347341 275.79,114.5 C275.79,125.58 267.42,134.22 256.34,134.22 C245.26,134.22 236.88,125.58 236.88,114.5 C236.824221,109.345564 238.865134,104.389681 242.534515,100.769326 C246.203896,97.1489712 251.18678,95.1748993 256.34,95.3 L256.34,95.3 Z M256.34,127.97 C263.23,127.97 268.74,122.24 268.74,114.5 C268.74,107.07 263.23,101.56 256.34,101.56 C249.45,101.56 243.93,107.07 243.93,114.5 C243.93,122.24 249.44,128 256.34,128 L256.34,127.97 Z" id="Shape" fill="#84BEDB" fill-rule="nonzero"></path>
            <path d="M302.69,95.3 C311.87,95.3 316.59,100.45 316.59,100.45 L313.3,105.54 C310.426401,103.072421 306.795744,101.661087 303.01,101.54 C295.06,101.54 290.39,107.48 290.39,114.48 C290.39,121.64 295.22,127.95 303.07,127.95 C309.59,127.95 313.99,123.17 313.99,123.17 L317.59,128.1 C313.70692,132.078173 308.358516,134.284073 302.8,134.2 C291.29,134.2 283.34,125.66 283.34,114.58 C283.240533,109.42456 285.249557,104.451864 288.902284,100.812352 C292.55501,97.1728394 297.534954,95.1818496 302.69,95.3 L302.69,95.3 Z" id="Path" fill="#84BEDB" fill-rule="nonzero"></path>
            <polygon id="Path" fill="#84BEDB" fill-rule="nonzero" points="327.1 95.94 333.94 95.94 333.94 111.94 351.17 111.94 351.17 95.94 358 95.94 358 133.59 351.16 133.59 351.16 117.78 333.94 117.78 333.94 133.59 327.1 133.59"></polygon>
            <path d="M368.72,95.94 L375.56,95.94 L375.56,120.06 C375.56,125.06 378.85,127.97 383.89,127.97 C388.93,127.97 392.26,125.1 392.26,119.97 L392.26,95.94 L399.1,95.94 L399.1,120.06 C399.1,128.5 393.01,134.22 383.94,134.22 C374.87,134.22 368.72,128.5 368.72,120.06 L368.72,95.94 Z" id="Path" fill="#84BEDB" fill-rule="nonzero"></path>
            <path d="M411.72,95.94 L419,95.94 L426.37,114.55 C427.22,116.78 428.28,120.06 428.28,120.06 L428.39,120.06 C428.39,120.06 429.39,116.78 430.24,114.55 L437.61,95.94 L445,95.94 L448,133.59 L441.2,133.59 L439.61,112.53 C439.45,110.04 439.56,106.7 439.56,106.7 L439.45,106.7 C439.45,106.7 438.34,110.36 437.45,112.53 L431.35,127.12 L425.35,127.12 L419.35,112.53 C418.44,110.36 417.28,106.65 417.28,106.65 L417.17,106.65 C417.17,106.65 417.28,110.04 417.12,112.53 L415.53,133.59 L408.69,133.59 L411.72,95.94 Z" id="Path" fill="#84BEDB" fill-rule="nonzero"></path>
            <path d="M144.38,0.999995071 L79,0.999995071 C80.15,6.99999507 81.38,13.71 81.89,16.82 C82.51,20.55 82.1,22.66 81.37,24.31 C80.73,25.73 79.76,28.56 88.26,38.99 C95.92,48.39 102.26,56.46 106.48,62.85 C109.19,66.98 106.64,74.33 93.56,74.34 C80.79,74.3 91,90.4999951 91,90.4999951 C91,90.4999951 94.47,96.73 83.46,100.07 C83.46,100.07 88.46,105.91 87.98,108.68 C87.5,111.45 84.36,112.57 82.98,116.05 C81.6,119.53 80.4,123.35 83.98,128.96 C87.72,134.85 86.98,149.89 73.98,154.960382 L144.3,154.960382 C147.131242,154.984018 149.854643,153.87542 151.864204,151.880883 C153.873765,149.886347 155.00277,147.171343 155.000005,144.34 L155.000005,11.56 C154.972462,5.71589079 150.224171,0.994426943 144.38,0.999995071 Z" id="Path" fill="#84BEDB" fill-rule="nonzero"></path>
            <path d="M0.999881998,11.56 L0.999881998,144.34 C0.986705189,147.160868 2.09729616,149.870906 4.08633589,151.871204 C6.07537561,153.871503 8.77910193,154.997373 11.6,155 L36.11,155 C35.27,150.37 33.47,146.42 33.17,144.58 C32.49,140.48 34.32,136.19 41.34,130.04 C53.59,119.31 35.02,114.27 37.48,113.97 C45.61,112.97 52.34,105.15 48.62,102.37 C44.9,99.59 38.68,88.77 42.86,86.78 C50.08,83.35 59.94,80.54 60.05,74.41 C60.16,68.28 50.05,60.41 43.11,51.68 C36.84,43.7 28.74,36.45 37,16.44 C38.78,12 39.15,6.65 38.57,1 L11.57,1 C5.74534144,1.0218948 1.02740795,5.73536478 0.999881998,11.56 Z" id="Path" fill="#6795AC" fill-rule="nonzero"></path>
            <rect id="Rectangle" x="0" y="0" width="425.2" height="155.91"></rect>
        </g>
    </g>
</svg>